<?xml version="1.0" standalone="no"?>
<!DOCTYPE svg PUBLIC "-//W3C//DTD SVG 20010904//EN"
 "http://www.w3.org/TR/2001/REC-SVG-20010904/DTD/svg10.dtd">
<svg version="1.0" xmlns="http://www.w3.org/2000/svg"
 width="401.000000pt" height="401.000000pt" viewBox="0 0 401.000000 401.000000"
 preserveAspectRatio="xMidYMid meet">
<metadata>
Created by potrace 1.11, written by Peter Selinger 2001-2013
</metadata>
<g transform="translate(0.000000,401.000000) scale(0.100000,-0.100000)"
fill="#000000" stroke="none">
<path d="M1715 3975 c-578 -93 -1066 -407 -1376 -883 -548 -842 -383 -1963
386 -2610 564 -475 1352 -597 2039 -316 651 267 1106 853 1211 1563 21 139 21
415 0 556 -125 841 -740 1494 -1575 1671 -111 23 -152 27 -360 30 -172 2 -259
-1 -325 -11z m-31 -1060 c256 -65 439 -225 537 -467 31 -77 32 -79 50 -61 10
10 132 139 271 286 l253 268 258 2 c141 1 257 0 257 -3 0 -3 -142 -147 -316
-320 -173 -173 -337 -340 -364 -371 l-49 -55 403 -570 404 -569 -257 -3 -256
-3 -20 24 c-11 13 -141 205 -290 428 l-269 404 -13 -95 c-42 -316 -193 -544
-438 -666 -170 -84 -257 -94 -802 -94 l-413 0 0 945 0 945 423 2 c432 3 528
-1 631 -27z"/>
<path d="M1040 1999 l0 -590 253 3 253 3 76 38 c186 92 267 273 255 571 -12
324 -121 489 -362 551 -44 11 -113 15 -267 15 l-208 0 0 -591z"/>
</g>
</svg>
